<svg width="100" height="100" viewBox="0 0 100 100" fill="none" xmlns="http://www.w3.org/2000/svg">
<circle cx="50" cy="50" r="50" fill="#F2F2F2"/>
<path d="M46.392 40.568C47.6933 40.568 48.8347 40.8453 49.816 41.4C50.8187 41.9333 51.5867 42.6907 52.12 43.672C52.6747 44.6533 52.952 45.784 52.952 47.064C52.952 48.344 52.6747 49.464 52.12 50.424C51.5653 51.384 50.776 52.1307 49.752 52.664C48.7493 53.1973 47.5867 53.464 46.264 53.464H40.664C40.5573 53.464 40.504 53.5173 40.504 53.624V62.52C40.504 62.6693 40.4613 62.7867 40.376 62.872C40.2907 62.9573 40.1733 63 40.024 63H37.912C37.7627 63 37.6453 62.9573 37.56 62.872C37.4747 62.7867 37.432 62.6693 37.432 62.52V41.048C37.432 40.8987 37.4747 40.7813 37.56 40.696C37.6453 40.6107 37.7627 40.568 37.912 40.568H46.392ZM45.976 50.968C47.1493 50.968 48.088 50.616 48.792 49.912C49.5173 49.208 49.88 48.28 49.88 47.128C49.88 45.9547 49.5173 45.016 48.792 44.312C48.088 43.5867 47.1493 43.224 45.976 43.224H40.664C40.5573 43.224 40.504 43.2773 40.504 43.384V50.808C40.504 50.9147 40.5573 50.968 40.664 50.968H45.976ZM59.0248 40.728C59.1954 40.6427 59.3981 40.6 59.6328 40.6H61.9048C62.0541 40.6 62.1714 40.6427 62.2568 40.728C62.3421 40.8133 62.3848 40.9307 62.3848 41.08V62.52C62.3848 62.6693 62.3421 62.7867 62.2568 62.872C62.1714 62.9573 62.0541 63 61.9048 63H59.7928C59.6434 63 59.5261 62.9573 59.4408 62.872C59.3554 62.7867 59.3128 62.6693 59.3128 62.52V43.768C59.3128 43.7253 59.2914 43.6933 59.2488 43.672C59.2061 43.6293 59.1634 43.6187 59.1208 43.64L55.9528 44.728C55.9101 44.7493 55.8461 44.76 55.7608 44.76C55.5261 44.76 55.4088 44.6213 55.4088 44.344V42.872C55.4088 42.6373 55.5261 42.456 55.7608 42.328L59.0248 40.728Z" fill="black"/>
</svg>
